<?xml version="1.0" encoding="utf-8"?>
<!-- Generator: Adobe Illustrator 23.1.1, SVG Export Plug-In . SVG Version: 6.00 Build 0)  -->
<svg version="1.1" id="_x2014_ÎÓÈ_x5F_1" xmlns="http://www.w3.org/2000/svg" xmlns:xlink="http://www.w3.org/1999/xlink"
	 x="0px" y="0px" viewBox="0 0 420 365" style="enable-background:new 0 0 420 365;" xml:space="preserve">
<style type="text/css">
	.st0{opacity:0.5;fill:#173D7A;}
	.st1{fill:#7DDFDF;}
	.st2{fill:#3AA09D;}
	.st3{fill:#476189;}
	.st4{fill:#FFFFFF;}
	.st5{fill:#173D7A;}
	.st6{fill:#396CAA;}
	.st7{fill:#274F89;}
	.st8{fill:#D4ECFF;}
	.st9{fill:#5793CE;}
	.st10{opacity:0.5;fill:#D4ECFF;}
	.st11{fill:#983BE9;}
	.st12{fill:#FFC2B0;}
	.st13{fill:#EA9C92;}
</style>
<path class="st0" d="M220.1,333.9L90.8,259.3c-2.9-1.7-2.9-5.9,0-7.5l122.9-71l137.6,79.4c2.9,1.7,2.9,5.9,0,7.5l-114.7,66.2
	C231.5,336.9,225.2,336.9,220.1,333.9z"/>
<g>
	<g>
		<path class="st1" d="M216.4,141c0-8.2-5.8-11.6-12.9-7.5L82.6,203.2c-2,1.1-3.5,3.9-3.5,6.1c0,2.3,1.6,3.2,3.5,2l120.9-69.7
			c3.2-1.8,5.8-0.3,5.8,3.4l0,13.5c2.3-0.1,4.7-0.1,7.1-0.1L216.4,141z"/>
		<path class="st2" d="M82.5,235.7l120.9-44.1c7.1-4.1,12.9-14.1,12.9-22.3l0-10.8c-2.4,0-4.7,0-7.1,0.1l0,14.8
			c0,3.7-2.6,8.2-5.8,10.1L82.5,227.6c-2,1.1-3.5,3.9-3.5,6.1C79,235.9,80.6,236.9,82.5,235.7z"/>
	</g>
	<polygon class="st2" points="79.9,235.9 227,321 351.6,246.7 361.4,232 360.4,237.2 357.8,223.5 126.6,232.4 85.8,229.7 	"/>
	<polygon class="st3" points="84.8,210.2 84.7,228.3 226.9,310.6 230.8,293.3 	"/>
	<polygon class="st1" points="359.6,217.7 212.7,132.8 80.3,209.8 80,211.6 227.1,296.7 	"/>
	<g>
		<path class="st4" d="M312.8,261.4l34.5-20.5c2.9-2,5.2-6.2,5.2-9.6l0-2.7c0-2.2-0.9-3.6-2.3-4l-68,37.8l-55.4,29.9l0.1,18.3
			L312.8,261.4z"/>
	</g>
	<path class="st2" d="M231.8,293.9L85.9,209.5l-3.1-1.8l-2.8-1.6c-0.6,1.1-0.9,2.2-0.9,3.3c0,1.1,0.4,1.9,1,2.3l0,0l0,0l0,0
		l147.1,85.1L231.8,293.9z"/>
	<polygon class="st4" points="225.2,320 227,321 227.4,320.4 226.2,319.5 	"/>
	<polygon class="st4" points="225.2,295.6 227.1,296.7 226.6,295.7 	"/>
	<g>
		<path class="st1" d="M229.7,288.3l120.9-69.7c7.1-4.1,12.9-0.8,12.9,7.5l0,2.7c0,8.2-5.8,18.2-12.9,22.3l-120.9,69.7
			c-2,1.1-3.5,0.2-3.5-2c0-2.3,1.6-5,3.5-6.1L350.6,243c3.2-1.8,5.8-6.4,5.8-10.1l0-2.7c0-3.7-2.6-5.2-5.8-3.4l-120.9,69.7
			c-2,1.1-3.5,0.2-3.5-2C226.1,292.2,227.7,289.5,229.7,288.3z"/>
	</g>
	<g>
		<path class="st4" d="M226.1,318.8c0-2.3,1.6-5,3.5-6.1L350.6,243c3.2-1.8,5.8-6.4,5.8-10.1l0-2.7c0-2.4-1.1-3.9-2.8-4.1
			c0.5,0.7,0.9,1.7,0.9,3l0,2.7c0,3.7-2.6,8.2-5.8,10.1l-120.9,69.7c-2,1.1-3.5,3.9-3.5,6.1c0,1.7,0.9,2.6,2.2,2.5
			C226.2,319.8,226.1,319.3,226.1,318.8z"/>
		<path class="st4" d="M226.1,294.5c0-2.3,1.6-5,3.5-6.1l120.9-69.7c3.1-1.8,5.9-2.1,8.1-1.4c-2.4-2-6-2.1-10,0.2l-120.9,69.7
			c-2,1.1-3.5,3.9-3.5,6.1c0,1.7,0.9,2.6,2.2,2.5C226.2,295.5,226.1,295,226.1,294.5z"/>
	</g>
</g>
<g>
	<path class="st5" d="M364.5,92.9L234.1,17.6c-1.5-0.9-3.1-1-4.4-0.5l0,0l-0.2,0.1c0,0,0,0-0.1,0l-4.7,1.8l4.2,2.1
		c0,0.1,0,0.2-0.1,0.2L207.6,118c-1.1,4.8,1.1,10.5,4.8,12.6l127.3,73.5l-0.5,5.4l5.2-2c1.7-0.8,3.1-2.6,3.7-5.2l21.3-96.7
		C370.4,100.7,368.2,95,364.5,92.9z"/>
	<path class="st6" d="M364.5,92.9L234.1,17.6c-1.5-0.9-3.1-1-4.4-0.5l0,0l-0.2,0.1c0,0,0,0-0.1,0l-4.7,1.8l4.2,2.1
		c0,0.1,0,0.2-0.1,0.2l-14,63.8l63.8,49.7l90-36.6C367.8,95.8,366.4,93.9,364.5,92.9z"/>
	<path class="st7" d="M359.6,107.8l9.9-4.2c0.2-3.8-1.4-7.8-4-9.9l-15.7,6.6L359.6,107.8z"/>
	<path class="st8" d="M334.7,209l-130.5-75.3c-3.7-2.1-5.8-7.8-4.8-12.6l21.3-96.7c1.1-4.8,4.9-7,8.6-4.9l130.5,75.3
		c3.7,2.1,5.8,7.8,4.8,12.6l-21.3,96.7C342.2,208.9,338.4,211.1,334.7,209z"/>
	<path class="st4" d="M361,94.3L230.6,18.9c-1.8-1-3.6-1-5.1-0.2c1.2-0.3,2.6-0.1,3.9,0.7l130.5,75.3c3.7,2.1,5.8,7.8,4.8,12.6
		l-21.3,96.7c-0.5,2.5-1.8,4.3-3.5,5.1c2.2-0.5,4-2.5,4.7-5.6l21.3-96.7C366.8,102,364.7,96.4,361,94.3z"/>
	<path class="st4" d="M331.8,201.8L209.1,131c-3.4-1.9-5.3-7.1-4.4-11.6l19.4-88.5c1-4.4,4.5-6.4,7.9-4.5l122.7,70.8
		c3.4,2,5.3,7.1,4.4,11.6l-19.4,88.5C338.7,201.7,335.2,203.7,331.8,201.8z"/>
	<path class="st5" d="M331.8,201.8L209.1,131c-3.4-1.9-5.3-7.1-4.4-11.6l19.4-88.5c1-4.4,4.5-6.4,7.9-4.5l122.7,70.8
		c3.4,2,5.3,7.1,4.4,11.6l-19.4,88.5C338.7,201.7,335.2,203.7,331.8,201.8z"/>
	<path class="st9" d="M332.9,201.4l-122.7-70.8c-3.4-1.9-5.3-7.1-4.4-11.6l19.4-88.5c0.5-2.2,1.6-3.9,3.1-4.7
		c-1.9,0.5-3.6,2.3-4.2,5.1l-19.4,88.5c-1,4.4,1,9.6,4.4,11.6l122.7,70.8c1.7,1,3.4,1,4.8,0.2C335.5,202.3,334.2,202.1,332.9,201.4z
		"/>
	<path class="st5" d="M336.5,212.3l-17.8-2.4l-115.1-66.5c-3.7-2.1-10.1-1.9-14.4,0.6l-81.6,47.1l-10.8-1.4v6.1l0,0
		c-0.1,1.4,0.7,2.8,2.5,3.8l130.5,75.3c3.7,2.1,10.1,1.9,14.4-0.6l88.8-51.3c2.4-1.4,3.6-3.2,3.5-4.8l0,0V212.3z"/>
	<path class="st6" d="M250,170.3l-8.2-4.7h-89.9l-44.3,25.6l-10.8-1.4v6.1l0,0c-0.1,1.4,0.7,2.8,2.5,3.8l130.5,75.3
		c2,1.1,4.7,1.6,7.4,1.4L250,170.3z"/>
	<path class="st9" d="M101.5,190.3l-4.8-0.6v6.1l0,0c-0.1,1.4,0.7,2.8,2.5,3.8l2.3,1.3V190.3z"/>
	<path class="st7" d="M231,275.5c3.5,1.3,8.5,1,12.2-0.8v-13.6H231V275.5z"/>
	<path class="st8" d="M229.7,268.8L99.2,193.5c-3.7-2.1-3.2-5.9,1-8.3l88.8-51.3c4.3-2.5,10.7-2.7,14.4-0.6L334,208.6
		c3.7,2.1,3.2,5.9-1,8.3l-88.8,51.3C239.8,270.7,233.4,270.9,229.7,268.8z"/>
	<path class="st4" d="M332.9,214.7L244.1,266c-4.3,2.5-10.7,2.7-14.4,0.6L99.2,191.3c-1.2-0.7-2-1.6-2.3-2.5
		c-0.6,1.7,0.2,3.5,2.3,4.7l130.5,75.3c3.7,2.1,10.1,1.9,14.4-0.6l88.8-51.3c2.9-1.7,4-3.9,3.3-5.8
		C335.9,212.4,334.7,213.7,332.9,214.7z"/>
	<g>
		<path class="st9" d="M154.7,168.5l-5.9-3.4c-0.5-0.3-0.4-0.8,0.1-1.1l7-4c0.5-0.3,1.4-0.4,1.8-0.1l5.9,3.4
			c0.5,0.3,0.4,0.8-0.1,1.1l-7,4C156,168.8,155.2,168.8,154.7,168.5z"/>
		<path class="st9" d="M163.8,173.8l-5.9-3.4c-0.5-0.3-0.4-0.8,0.1-1.1l7-4c0.5-0.3,1.4-0.4,1.8-0.1l5.9,3.4
			c0.5,0.3,0.4,0.8-0.1,1.1l-7,4C165.1,174.1,164.3,174.1,163.8,173.8z"/>
		<path class="st9" d="M173,179.1l-5.9-3.4c-0.5-0.3-0.4-0.8,0.1-1.1l7-4c0.5-0.3,1.4-0.4,1.8-0.1l5.9,3.4c0.5,0.3,0.4,0.8-0.1,1.1
			l-7,4C174.3,179.3,173.4,179.3,173,179.1z"/>
		<path class="st9" d="M185.6,174.7l-5.9-3.4c-0.5-0.3-0.4-0.8,0.1-1.1l5.8-3.4c0.5-0.3,1.4-0.4,1.8-0.1l5.9,3.4
			c0.5,0.3,0.4,0.8-0.1,1.1l-5.8,3.4C186.9,175,186,175,185.6,174.7z"/>
		<path class="st9" d="M194.7,180l-5.9-3.4c-0.5-0.3-0.4-0.8,0.1-1.1l5.8-3.4c0.5-0.3,1.4-0.4,1.8-0.1l5.9,3.4
			c0.5,0.3,0.4,0.8-0.1,1.1l-5.8,3.4C196,180.2,195.2,180.3,194.7,180z"/>
		<path class="st9" d="M203.8,185.3l-5.9-3.4c-0.5-0.3-0.4-0.8,0.1-1.1l5.8-3.4c0.5-0.3,1.4-0.4,1.8-0.1l5.9,3.4
			c0.5,0.3,0.4,0.8-0.1,1.1l-5.8,3.4C205.1,185.5,204.3,185.5,203.8,185.3z"/>
		<path class="st9" d="M212.9,190.5l-5.9-3.4c-0.5-0.3-0.4-0.8,0.1-1.1l5.8-3.4c0.5-0.3,1.4-0.4,1.8-0.1l5.9,3.4
			c0.5,0.3,0.4,0.8-0.1,1.1l-5.8,3.4C214.2,190.8,213.4,190.8,212.9,190.5z"/>
		<path class="st9" d="M222,195.8l-5.9-3.4c-0.5-0.3-0.4-0.8,0.1-1.1l5.8-3.4c0.5-0.3,1.4-0.4,1.8-0.1l5.9,3.4
			c0.5,0.3,0.4,0.8-0.1,1.1l-5.8,3.4C223.3,196,222.5,196.1,222,195.8z"/>
		<path class="st9" d="M231.2,201l-5.9-3.4c-0.5-0.3-0.4-0.8,0.1-1.1l5.8-3.4c0.5-0.3,1.4-0.4,1.8-0.1l5.9,3.4
			c0.5,0.3,0.4,0.8-0.1,1.1L233,201C232.5,201.3,231.6,201.3,231.2,201z"/>
		<path class="st9" d="M240.3,206.3l-5.9-3.4c-0.5-0.3-0.4-0.8,0.1-1.1l5.8-3.4c0.5-0.3,1.4-0.4,1.8-0.1l5.9,3.4
			c0.5,0.3,0.4,0.8-0.1,1.1l-5.8,3.4C241.6,206.5,240.7,206.6,240.3,206.3z"/>
		<path class="st9" d="M249.4,211.6l-5.9-3.4c-0.5-0.3-0.4-0.8,0.1-1.1l5.8-3.4c0.5-0.3,1.4-0.4,1.8-0.1l5.9,3.4
			c0.5,0.3,0.4,0.8-0.1,1.1l-5.8,3.4C250.7,211.8,249.9,211.8,249.4,211.6z"/>
		<path class="st9" d="M258.5,216.8l-5.9-3.4c-0.5-0.3-0.4-0.8,0.1-1.1l5.8-3.4c0.5-0.3,1.4-0.4,1.8-0.1l5.9,3.4
			c0.5,0.3,0.4,0.8-0.1,1.1l-5.8,3.4C259.8,217.1,259,217.1,258.5,216.8z"/>
		<path class="st9" d="M267.6,222.1l-5.9-3.4c-0.5-0.3-0.4-0.8,0.1-1.1l5.8-3.4c0.5-0.3,1.4-0.4,1.8-0.1l5.9,3.4
			c0.5,0.3,0.4,0.8-0.1,1.1l-5.8,3.4C268.9,222.3,268.1,222.4,267.6,222.1z"/>
		<path class="st9" d="M199,172.2l-5.9-3.4c-0.5-0.3-0.4-0.8,0.1-1.1l5.8-3.4c0.5-0.3,1.4-0.4,1.8-0.1l5.9,3.4
			c0.5,0.3,0.4,0.8-0.1,1.1l-5.8,3.4C200.3,172.5,199.5,172.5,199,172.2z"/>
		<path class="st9" d="M189.7,166.9l-5.9-3.4c-0.5-0.3-0.4-0.8,0.1-1.1l5.8-3.4c0.5-0.3,1.4-0.4,1.8-0.1l5.9,3.4
			c0.5,0.3,0.4,0.8-0.1,1.1l-5.8,3.4C191.1,167.1,190.2,167.2,189.7,166.9z"/>
		<path class="st9" d="M180.5,161.5l-12.7-7.3c-0.5-0.3-0.4-0.8,0.1-1.1l5.8-3.4c0.5-0.3,1.4-0.4,1.8-0.1l12.7,7.3
			c0.5,0.3,0.4,0.8-0.1,1.1l-5.8,3.4C181.8,161.8,181,161.8,180.5,161.5z"/>
		<path class="st9" d="M187,155l-10.3-6c-0.5-0.3-0.4-0.8,0.1-1.1l5.8-3.4c0.5-0.3,1.4-0.4,1.8-0.1l10.3,6c0.5,0.3,0.4,0.8-0.1,1.1
			l-5.8,3.4C188.3,155.3,187.4,155.3,187,155z"/>
		<path class="st9" d="M208.1,177.5l-5.9-3.4c-0.5-0.3-0.4-0.8,0.1-1.1l5.8-3.4c0.5-0.3,1.4-0.4,1.8-0.1l5.9,3.4
			c0.5,0.3,0.4,0.8-0.1,1.1l-5.8,3.4C209.4,177.7,208.6,177.8,208.1,177.5z"/>
		<path class="st9" d="M217.2,182.8l-5.9-3.4c-0.5-0.3-0.4-0.8,0.1-1.1l5.8-3.4c0.5-0.3,1.4-0.4,1.8-0.1l5.9,3.4
			c0.5,0.3,0.4,0.8-0.1,1.1l-5.8,3.4C218.5,183,217.7,183,217.2,182.8z"/>
		<path class="st9" d="M226.4,188l-5.9-3.4c-0.5-0.3-0.4-0.8,0.1-1.1l5.8-3.4c0.5-0.3,1.4-0.4,1.8-0.1l5.9,3.4
			c0.5,0.3,0.4,0.8-0.1,1.1l-5.8,3.4C227.7,188.3,226.8,188.3,226.4,188z"/>
		<path class="st9" d="M235.5,193.3l-5.9-3.4c-0.5-0.3-0.4-0.8,0.1-1.1l5.8-3.4c0.5-0.3,1.4-0.4,1.8-0.1l5.9,3.4
			c0.5,0.3,0.4,0.8-0.1,1.1l-5.8,3.4C236.8,193.5,235.9,193.6,235.5,193.3z"/>
		<path class="st9" d="M244.6,198.6l-5.9-3.4c-0.5-0.3-0.4-0.8,0.1-1.1l5.8-3.4c0.5-0.3,1.4-0.4,1.8-0.1l5.9,3.4
			c0.5,0.3,0.4,0.8-0.1,1.1l-5.8,3.4C245.9,198.8,245.1,198.8,244.6,198.6z"/>
		<path class="st9" d="M253.7,203.8l-5.9-3.4c-0.5-0.3-0.4-0.8,0.1-1.1l5.8-3.4c0.5-0.3,1.4-0.4,1.8-0.1l5.9,3.4
			c0.5,0.3,0.4,0.8-0.1,1.1l-5.8,3.4C255,204.1,254.2,204.1,253.7,203.8z"/>
		<path class="st9" d="M262.8,209.1l-5.9-3.4c-0.5-0.3-0.4-0.8,0.1-1.1l5.8-3.4c0.5-0.3,1.4-0.4,1.8-0.1l5.9,3.4
			c0.5,0.3,0.4,0.8-0.1,1.1l-5.8,3.4C264.1,209.3,263.3,209.4,262.8,209.1z"/>
		<path class="st9" d="M271.9,214.3l-5.9-3.4c-0.5-0.3-0.4-0.8,0.1-1.1l5.8-3.4c0.5-0.3,1.4-0.4,1.8-0.1l5.9,3.4
			c0.5,0.3,0.4,0.8-0.1,1.1l-5.8,3.4C273.2,214.6,272.4,214.6,271.9,214.3z"/>
		<path class="st9" d="M281.1,219.6l-5.9-3.4c-0.5-0.3-0.4-0.8,0.1-1.1l5.8-3.4c0.5-0.3,1.4-0.4,1.8-0.1l5.9,3.4
			c0.5,0.3,0.4,0.8-0.1,1.1l-5.8,3.4C282.4,219.8,281.5,219.9,281.1,219.6z"/>
		<path class="st9" d="M297.3,229l-12.9-7.4c-0.5-0.3-0.4-0.8,0.1-1.1l5.8-3.4c0.5-0.3,1.4-0.4,1.8-0.1l12.9,7.4
			c0.5,0.3,0.4,0.8-0.1,1.1l-5.8,3.4C298.6,229.2,297.7,229.2,297.3,229z"/>
		<path class="st9" d="M315,218.7l-10.9-6.3c-0.5-0.3-0.4-0.8,0.1-1.1l5.8-3.4c0.5-0.3,1.4-0.4,1.8-0.1l10.9,6.3
			c0.5,0.3,0.4,0.8-0.1,1.1l-5.8,3.4C316.3,219,315.5,219,315,218.7z"/>
		<path class="st9" d="M224.1,176.5l-5.9-3.4c-0.5-0.3-0.4-0.8,0.1-1.1l5.8-3.4c0.5-0.3,1.4-0.4,1.8-0.1l5.9,3.4
			c0.5,0.3,0.4,0.8-0.1,1.1l-5.8,3.4C225.4,176.7,224.6,176.7,224.1,176.5z"/>
		<path class="st9" d="M214.7,171.1l-5.9-3.4c-0.5-0.3-0.4-0.8,0.1-1.1l5.8-3.4c0.5-0.3,1.4-0.4,1.8-0.1l5.9,3.4
			c0.5,0.3,0.4,0.8-0.1,1.1l-5.8,3.4C216,171.3,215.2,171.4,214.7,171.1z"/>
		<path class="st9" d="M205.4,165.7l-5.9-3.4c-0.5-0.3-0.4-0.8,0.1-1.1l5.8-3.4c0.5-0.3,1.4-0.4,1.8-0.1l5.9,3.4
			c0.5,0.3,0.4,0.8-0.1,1.1l-5.8,3.4C206.7,165.9,205.9,166,205.4,165.7z"/>
		<path class="st9" d="M196.1,160.3l-5.9-3.4c-0.5-0.3-0.4-0.8,0.1-1.1l5.8-3.4c0.5-0.3,1.4-0.4,1.8-0.1l5.9,3.4
			c0.5,0.3,0.4,0.8-0.1,1.1l-5.8,3.4C197.4,160.5,196.5,160.6,196.1,160.3z"/>
		<path class="st9" d="M233.2,181.7l-5.9-3.4c-0.5-0.3-0.4-0.8,0.1-1.1l5.8-3.4c0.5-0.3,1.4-0.4,1.8-0.1l5.9,3.4
			c0.5,0.3,0.4,0.8-0.1,1.1l-5.8,3.4C234.5,182,233.7,182,233.2,181.7z"/>
		<path class="st9" d="M242.3,187l-5.9-3.4c-0.5-0.3-0.4-0.8,0.1-1.1l5.8-3.4c0.5-0.3,1.4-0.4,1.8-0.1l5.9,3.4
			c0.5,0.3,0.4,0.8-0.1,1.1l-5.8,3.4C243.6,187.2,242.8,187.3,242.3,187z"/>
		<path class="st9" d="M251.4,192.3l-5.9-3.4c-0.5-0.3-0.4-0.8,0.1-1.1l5.8-3.4c0.5-0.3,1.4-0.4,1.8-0.1l5.9,3.4
			c0.5,0.3,0.4,0.8-0.1,1.1l-5.8,3.4C252.7,192.5,251.9,192.5,251.4,192.3z"/>
		<path class="st9" d="M260.5,197.5l-5.9-3.4c-0.5-0.3-0.4-0.8,0.1-1.1l5.8-3.4c0.5-0.3,1.4-0.4,1.8-0.1l5.9,3.4
			c0.5,0.3,0.4,0.8-0.1,1.1l-5.8,3.4C261.9,197.8,261,197.8,260.5,197.5z"/>
		<path class="st9" d="M269.7,202.8l-5.9-3.4c-0.5-0.3-0.4-0.8,0.1-1.1l5.8-3.4c0.5-0.3,1.4-0.4,1.8-0.1l5.9,3.4
			c0.5,0.3,0.4,0.8-0.1,1.1l-5.8,3.4C271,203,270.1,203.1,269.7,202.8z"/>
		<path class="st9" d="M278.8,208.1l-5.9-3.4c-0.5-0.3-0.4-0.8,0.1-1.1l5.8-3.4c0.5-0.3,1.4-0.4,1.8-0.1l5.9,3.4
			c0.5,0.3,0.4,0.8-0.1,1.1l-5.8,3.4C280.1,208.3,279.3,208.3,278.8,208.1z"/>
		<path class="st9" d="M287.9,213.3l-5.9-3.4c-0.5-0.3-0.4-0.8,0.1-1.1l5.8-3.4c0.5-0.3,1.4-0.4,1.8-0.1l5.9,3.4
			c0.5,0.3,0.4,0.8-0.1,1.1l-5.8,3.4C289.2,213.6,288.4,213.6,287.9,213.3z"/>
		<path class="st9" d="M297,218.6l-5.9-3.4c-0.5-0.3-0.4-0.8,0.1-1.1l5.8-3.4c0.5-0.3,1.4-0.4,1.8-0.1l5.9,3.4
			c0.5,0.3,0.4,0.8-0.1,1.1l-5.8,3.4C298.3,218.8,297.5,218.9,297,218.6z"/>
		<path class="st9" d="M306.1,223.8l-5.9-3.4c-0.5-0.3-0.4-0.8,0.1-1.1l5.8-3.4c0.5-0.3,1.4-0.4,1.8-0.1l5.9,3.4
			c0.5,0.3,0.4,0.8-0.1,1.1l-5.8,3.4C307.4,224.1,306.6,224.1,306.1,223.8z"/>
		<path class="st9" d="M219.3,163.5l-5.9-3.4c-0.5-0.3-0.4-0.8,0.1-1.1l5.8-3.4c0.5-0.3,1.4-0.4,1.8-0.1l5.9,3.4
			c0.5,0.3,0.4,0.8-0.1,1.1l-5.8,3.4C220.6,163.7,219.8,163.7,219.3,163.5z"/>
		<path class="st9" d="M210.2,158.2l-5.9-3.4c-0.5-0.3-0.4-0.8,0.1-1.1l5.8-3.4c0.5-0.3,1.4-0.4,1.8-0.1l5.9,3.4
			c0.5,0.3,0.4,0.8-0.1,1.1l-5.8,3.4C211.5,158.5,210.7,158.5,210.2,158.2z"/>
		<path class="st9" d="M201.1,153l-5.9-3.4c-0.5-0.3-0.4-0.8,0.1-1.1l5.8-3.4c0.5-0.3,1.4-0.4,1.8-0.1l5.9,3.4
			c0.5,0.3,0.4,0.8-0.1,1.1l-5.8,3.4C202.4,153.2,201.6,153.3,201.1,153z"/>
		<path class="st9" d="M192.1,147.7l-5.9-3.4c-0.5-0.3-0.4-0.8,0.1-1.1l5.8-3.4c0.5-0.3,1.4-0.4,1.8-0.1l5.9,3.4
			c0.5,0.3,0.4,0.8-0.1,1.1l-5.8,3.4C193.4,148,192.5,148,192.1,147.7z"/>
		<path class="st9" d="M201.4,142.4l-5.9-3.4c-0.5-0.3-0.4-0.8,0.1-1.1l1.9-1.1c0.5-0.3,1.4-0.4,1.8-0.1l5.9,3.4
			c0.5,0.3,0.4,0.8-0.1,1.1l-1.9,1.1C202.7,142.6,201.9,142.6,201.4,142.4z"/>
		<path class="st9" d="M213.2,149.2l-5.9-3.4c-0.5-0.3-0.4-0.8,0.1-1.1l1.9-1.1c0.5-0.3,1.4-0.4,1.8-0.1l5.9,3.4
			c0.5,0.3,0.4,0.8-0.1,1.1l-1.9,1.1C214.5,149.4,213.7,149.5,213.2,149.2z"/>
		<path class="st9" d="M222.3,154.4l-5.9-3.4c-0.5-0.3-0.4-0.8,0.1-1.1l1.9-1.1c0.5-0.3,1.4-0.4,1.8-0.1l5.9,3.4
			c0.5,0.3,0.4,0.8-0.1,1.1l-1.9,1.1C223.6,154.6,222.7,154.7,222.3,154.4z"/>
		<path class="st9" d="M231.3,159.6l-5.9-3.4c-0.5-0.3-0.4-0.8,0.1-1.1l1.9-1.1c0.5-0.3,1.4-0.4,1.8-0.1l5.9,3.4
			c0.5,0.3,0.4,0.8-0.1,1.1l-1.9,1.1C232.6,159.9,231.8,159.9,231.3,159.6z"/>
		<path class="st9" d="M240.3,164.8l-5.9-3.4c-0.5-0.3-0.4-0.8,0.1-1.1l1.9-1.1c0.5-0.3,1.4-0.4,1.8-0.1l5.9,3.4
			c0.5,0.3,0.4,0.8-0.1,1.1l-1.9,1.1C241.6,165.1,240.8,165.1,240.3,164.8z"/>
		<path class="st9" d="M290.8,194l-5.9-3.4c-0.5-0.3-0.4-0.8,0.1-1.1l1.9-1.1c0.5-0.3,1.4-0.4,1.8-0.1l5.9,3.4
			c0.5,0.3,0.4,0.8-0.1,1.1l-1.9,1.1C292.1,194.2,291.2,194.2,290.8,194z"/>
		<path class="st9" d="M299.8,199.2l-5.9-3.4c-0.5-0.3-0.4-0.8,0.1-1.1l1.9-1.1c0.5-0.3,1.4-0.4,1.8-0.1l5.9,3.4
			c0.5,0.3,0.4,0.8-0.1,1.1l-1.9,1.1C301.1,199.4,300.3,199.4,299.8,199.2z"/>
		<path class="st9" d="M308.8,204.4l-5.9-3.4c-0.5-0.3-0.4-0.8,0.1-1.1l1.9-1.1c0.5-0.3,1.4-0.4,1.8-0.1l5.9,3.4
			c0.5,0.3,0.4,0.8-0.1,1.1l-1.9,1.1C310.1,204.6,309.3,204.7,308.8,204.4z"/>
		<path class="st9" d="M317.9,209.6l-5.9-3.4c-0.5-0.3-0.4-0.8,0.1-1.1l1.9-1.1c0.5-0.3,1.4-0.4,1.8-0.1l5.9,3.4
			c0.5,0.3,0.4,0.8-0.1,1.1l-1.9,1.1C319.2,209.8,318.3,209.9,317.9,209.6z"/>
		<path class="st9" d="M228.4,168.7l-5.9-3.4c-0.5-0.3-0.4-0.8,0.1-1.1l5.8-3.4c0.5-0.3,1.4-0.4,1.8-0.1l5.9,3.4
			c0.5,0.3,0.4,0.8-0.1,1.1l-5.8,3.4C229.7,169,228.9,169,228.4,168.7z"/>
		<path class="st9" d="M237.5,174l-5.9-3.4c-0.5-0.3-0.4-0.8,0.1-1.1l5.8-3.4c0.5-0.3,1.4-0.4,1.8-0.1l5.9,3.4
			c0.5,0.3,0.4,0.8-0.1,1.1l-5.8,3.4C238.8,174.2,238,174.3,237.5,174z"/>
		<path class="st9" d="M246.6,179.2l-5.9-3.4c-0.5-0.3-0.4-0.8,0.1-1.1l5.8-3.4c0.5-0.3,1.4-0.4,1.8-0.1l5.9,3.4
			c0.5,0.3,0.4,0.8-0.1,1.1l-5.8,3.4C247.9,179.5,247.1,179.5,246.6,179.2z"/>
		<path class="st9" d="M255.7,184.5l-5.9-3.4c-0.5-0.3-0.4-0.8,0.1-1.1l5.8-3.4c0.5-0.3,1.4-0.4,1.8-0.1l5.9,3.4
			c0.5,0.3,0.4,0.8-0.1,1.1l-5.8,3.4C257.1,184.7,256.2,184.8,255.7,184.5z"/>
		<path class="st9" d="M264.9,189.8l-5.9-3.4c-0.5-0.3-0.4-0.8,0.1-1.1l5.8-3.4c0.5-0.3,1.4-0.4,1.8-0.1l5.9,3.4
			c0.5,0.3,0.4,0.8-0.1,1.1l-5.8,3.4C266.2,190,265.3,190,264.9,189.8z"/>
		<path class="st9" d="M274,195l-5.9-3.4c-0.5-0.3-0.4-0.8,0.1-1.1l5.8-3.4c0.5-0.3,1.4-0.4,1.8-0.1l5.9,3.4
			c0.5,0.3,0.4,0.8-0.1,1.1l-5.8,3.4C275.3,195.3,274.5,195.3,274,195z"/>
		<path class="st9" d="M283.1,200.3l-5.9-3.4c-0.5-0.3-0.4-0.8,0.1-1.1l5.8-3.4c0.5-0.3,1.4-0.4,1.8-0.1l5.9,3.4
			c0.5,0.3,0.4,0.8-0.1,1.1l-5.8,3.4C284.4,200.5,283.6,200.6,283.1,200.3z"/>
		<path class="st9" d="M292.2,205.6l-5.9-3.4c-0.5-0.3-0.4-0.8,0.1-1.1l5.8-3.4c0.5-0.3,1.4-0.4,1.8-0.1l5.9,3.4
			c0.5,0.3,0.4,0.8-0.1,1.1l-5.8,3.4C293.5,205.8,292.7,205.8,292.2,205.6z"/>
		<path class="st9" d="M301.3,210.8l-5.9-3.4c-0.5-0.3-0.4-0.8,0.1-1.1l5.8-3.4c0.5-0.3,1.4-0.4,1.8-0.1l5.9,3.4
			c0.5,0.3,0.4,0.8-0.1,1.1l-5.8,3.4C302.6,211.1,301.8,211.1,301.3,210.8z"/>
		<path class="st9" d="M176.3,169.4l-17.4-10c-0.5-0.3-0.4-0.8,0.1-1.1l5.8-3.4c0.5-0.3,1.4-0.4,1.8-0.1l17.4,10
			c0.5,0.3,0.4,0.8-0.1,1.1l-5.8,3.4C177.6,169.6,176.8,169.6,176.3,169.4z"/>
		<path class="st9" d="M288.3,234l-17.4-10c-0.5-0.3-0.4-0.8,0.1-1.1l5.8-3.4c0.5-0.3,1.4-0.4,1.8-0.1l17.4,10
			c0.5,0.3,0.4,0.8-0.1,1.1l-5.8,3.4C289.6,234.3,288.8,234.3,288.3,234z"/>
		<path class="st9" d="M251.8,224.6l-5.9-3.4c-0.5-0.3-0.4-0.8,0.1-1.1l7-4c0.5-0.3,1.4-0.4,1.8-0.1l5.9,3.4
			c0.5,0.3,0.4,0.8-0.1,1.1l-7,4C253.1,224.8,252.3,224.9,251.8,224.6z"/>
		<path class="st9" d="M185.6,186.4l-9.4-5.5c-0.5-0.3-0.4-0.8,0.1-1.1l7-4c0.5-0.3,1.4-0.4,1.8-0.1l9.4,5.5
			c0.5,0.3,0.4,0.8-0.1,1.1l-7,4C186.9,186.6,186.1,186.7,185.6,186.4z"/>
		<path class="st9" d="M243,219.5l-9.4-5.5c-0.5-0.3-0.4-0.8,0.1-1.1l7-4c0.5-0.3,1.4-0.4,1.8-0.1l9.4,5.5c0.5,0.3,0.4,0.8-0.1,1.1
			l-7,4C244.3,219.8,243.5,219.8,243,219.5z"/>
		<path class="st9" d="M198.8,194l-9.4-5.5c-0.5-0.3-0.4-0.8,0.1-1.1l7-4c0.5-0.3,1.4-0.4,1.8-0.1l9.4,5.5c0.5,0.3,0.4,0.8-0.1,1.1
			l-7,4C200.1,194.2,199.2,194.2,198.8,194z"/>
		<path class="st9" d="M198.3,183.4l41,23.7c0.5,0.3,0.5,0.8,0,1.1l-7.1,4.1c-0.5,0.3-1.3,0.3-1.8,0l-41-23.7L198.3,183.4z"/>
		<path class="st9" d="M277.3,234.1l6.6,3.8c0.4,0.2,0.3,0.6-0.1,0.9l-2.9,1.6c-0.4,0.3-1.1,0.3-1.5,0.1l-6.6-3.8
			c-0.4-0.2-0.3-0.6,0.1-0.9l2.9-1.6C276.2,234,276.9,233.9,277.3,234.1z"/>
		<path class="st9" d="M268.1,228.8l6.6,3.8c0.4,0.2,0.3,0.6-0.1,0.9l-2.9,1.6c-0.4,0.3-1.1,0.3-1.5,0.1l-6.6-3.8
			c-0.4-0.2-0.3-0.6,0.1-0.9l2.9-1.6C267,228.6,267.7,228.6,268.1,228.8z"/>
		<path class="st9" d="M259,223.6l6.6,3.8c0.4,0.2,0.3,0.6-0.1,0.9l-2.9,1.6c-0.4,0.3-1.1,0.3-1.5,0.1l-6.6-3.8
			c-0.4-0.2-0.3-0.6,0.1-0.9l2.9-1.6C257.9,223.4,258.6,223.4,259,223.6z"/>
		<path class="st9" d="M273.1,225.9l6.6,3.8c0.4,0.2,0.3,0.6-0.1,0.9l-2.9,1.6c-0.4,0.3-1.1,0.3-1.5,0.1l-6.6-3.8
			c-0.4-0.2-0.3-0.6,0.1-0.9l2.9-1.6C272.1,225.7,272.8,225.7,273.1,225.9z"/>
	</g>
	<g>
		<polygon class="st8" points="309.2,123.2 260,94.9 260.7,91.7 309.8,120 		"/>
		<polygon class="st8" points="291.6,128.6 257.3,108.8 257.9,105.6 292.2,125.4 		"/>
		<polygon class="st4" points="288.3,119 258.7,101.9 259.3,98.7 289,115.8 		"/>
		<polygon class="st1" points="307.8,130.2 292.9,121.6 293.6,118.5 308.4,127 		"/>
		<polygon class="st8" points="254.8,67 240,58.5 240.6,55.3 255.4,63.8 		"/>
		<polygon class="st4" points="253.2,74.4 238.4,65.9 239,62.7 253.8,71.3 		"/>
		<polygon class="st8" points="326,177.4 311.2,168.8 311.8,165.6 326.6,174.2 		"/>
		<polygon class="st8" points="250,89.3 235.2,80.7 235.8,77.5 250.6,86.1 		"/>
	</g>
	<g>
		<path class="st1" d="M282,91.6c-0.5,1-1.7,1.4-2.7,0.8c-1-0.6-1.4-1.9-1-2.9s1.7-1.4,2.7-0.8C282.1,89.2,282.5,90.6,282,91.6z"/>
		<path class="st4" d="M288.4,95.3c-0.5,1-1.7,1.4-2.7,0.8c-1-0.6-1.4-1.9-1-2.9c0.5-1,1.7-1.4,2.7-0.8
			C288.5,92.9,288.9,94.2,288.4,95.3z"/>
		<path class="st8" d="M294.8,99c-0.5,1-1.7,1.4-2.7,0.8c-1-0.6-1.4-1.9-1-2.9s1.7-1.4,2.7-0.8C294.8,96.6,295.3,97.9,294.8,99z"/>
		<path class="st1" d="M301.2,102.6c-0.5,1-1.7,1.4-2.7,0.8c-1-0.6-1.4-1.9-1-2.9s1.7-1.4,2.7-0.8
			C301.2,100.3,301.7,101.6,301.2,102.6z"/>
	</g>
</g>
<g>
	<path class="st0" d="M365.7,306.4c-2-1.1-5.2-1.1-7.2,0L265.7,360c-2,1.1-2,3,0,4.2c2,1.1,5.2,1.1,7.2,0l92.7-53.6
		C367.6,309.4,367.6,307.6,365.7,306.4z"/>
	<g>
		<g>
			<path class="st8" d="M381.5,277.4L381.5,277.4c-0.1-0.2-0.3-0.2-0.4-0.2l-5.6,1.2l2.2,3.8l3.8-4.3
				C381.6,277.7,381.6,277.5,381.5,277.4z"/>
			<g>
				<path class="st9" d="M379.3,280.2c0-0.8-0.6-1.8-1.3-2.2c-0.3-0.2-0.6-0.2-0.8-0.1c-6.5-0.1-12.9,1.7-18.4,4.9l-0.4,0.2l7,11.9
					l2.1-1.4c4.4-2.9,8-6.7,10.8-11.1l0.9-1.4C379.2,280.8,379.3,280.5,379.3,280.2z"/>
				<path class="st8" d="M366.7,291.7c0-3.1-2.2-6.9-4.9-8.4c-2.7-1.5-4.9-0.3-4.8,2.8s2.2,6.9,4.9,8.4
					C364.5,296.1,366.7,294.8,366.7,291.7z"/>
				<polygon class="st8" points="323.9,320.7 365.3,294.9 358.3,283.1 315.7,306.7 				"/>
				<path class="st8" d="M325.6,316.9c0-3.7-2.6-8.1-5.8-9.9c-3.2-1.8-5.7-0.3-5.7,3.4c0,3.7,2.6,8.1,5.8,9.9
					C323.1,322.1,325.6,320.6,325.6,316.9z"/>
			</g>
			<g>
				<path class="st8" d="M323.2,318.3c0-3.7-2.6-8.1-5.8-9.9c-3.2-1.8-5.7-0.3-5.7,3.4c0,3.7,2.6,8.1,5.8,9.9
					C320.7,323.5,323.3,322,323.2,318.3z"/>
				
					<rect x="258.4" y="323" transform="matrix(0.8621 -0.5067 0.5067 0.8621 -127.7919 192.6698)" class="st8" width="63.5" height="16.2"/>
				<path class="st8" d="M268.5,350.5c0-3.7-2.6-8.1-5.8-9.9c-3.2-1.8-5.7-0.3-5.7,3.4c0,3.7,2.6,8.1,5.8,9.9
					C266,355.6,268.5,354.1,268.5,350.5z"/>
				<path class="st6" d="M266.5,349.3c-0.1-2.2-1.9-4.9-3.9-6c-2-1.2-3.6-0.3-3.5,1.8c0.1,2.2,1.9,4.9,3.9,6
					C265,352.3,266.6,351.5,266.5,349.3z"/>
			</g>
			<g>
				<path class="st4" d="M326,316.7c0-3.7-2.6-8.1-5.8-9.9c-1.3-0.7-2.5-0.9-3.4-0.6c1-1.1,2.7-1.2,4.7-0.1c3.2,1.8,5.8,6.2,5.8,9.9
					c0,2.2-0.9,3.6-2.3,4C325.6,319.2,326,318.1,326,316.7z"/>
				<path class="st9" d="M326,316.7c0-3.7-2.6-8.1-5.8-9.9c-1.6-0.9-3-1-4.1-0.4l-3.1,1.8l1.5,2.5c0.3,3.3,2.5,7.1,5.3,9l1.5,2.5
					l3.1-1.8l0,0C325.4,319.8,326,318.5,326,316.7z"/>
				<path class="st8" d="M322.9,318.5c0-3.7-2.6-8.1-5.8-9.9c-3.2-1.8-5.7-0.3-5.7,3.4c0,3.7,2.6,8.1,5.8,9.9
					C320.4,323.7,322.9,322.2,322.9,318.5z"/>
			</g>
			<g>
				<path class="st1" d="M263.9,350.9l-3.6-6l-11.6,6.8c-1.7,1-2.2,3.1-1.2,4.8l0,0c1,1.7,3.1,2.2,4.8,1.2L263.9,350.9z"/>
				<path class="st1" d="M264.6,349.3c0-1.6-1.1-3.5-2.5-4.3c-1.4-0.8-2.5-0.1-2.5,1.5c0,1.6,1.1,3.5,2.5,4.3
					C263.5,351.6,264.6,350.9,264.6,349.3z"/>
			</g>
			<g>
				<path class="st9" d="M277.5,328l-1.7-1c-1-0.6-2.3-0.4-3.7,0.4l-6,3.5c-1.1,0.7-2,2.3-2,3.6l0,3c0,0.5-0.2,1.1-0.6,1.5l0.2,1.4
					l-1.5-0.9l0,0c-0.2-0.1-0.4-0.4-0.4-0.7l0-3c0-2.7,1.9-6.1,4.2-7.4l6-3.5c2-1.2,3.9-1.4,5.3-0.6l1.7,1c1,0.6,2.3,0.4,3.7-0.4
					l24-14.1c0.3-0.2,0.6-0.2,0.8-0.1l0,0l1.5,0.8l-1.3,0.5c-0.2,0.5-0.5,1.1-1,1.3l-24,14.1C280.8,328.6,278.9,328.8,277.5,328z"/>
				<path class="st9" d="M277.2,327.9c-1-0.6-2.3-0.4-3.7,0.4l-6,3.5c-1.1,0.7-2,2.3-2,3.6l0,3c0,0.7-0.5,1.6-1.1,1.9
					c-0.6,0.4-1.1,0.1-1.1-0.6l0-3c0-2.7,1.9-6.1,4.2-7.4l6-3.5c2-1.2,3.9-1.4,5.3-0.6l1.7,1c1,0.6,2.3,0.4,3.7-0.4l24-14.1
					c0.6-0.4,1.1-0.1,1.1,0.6c0,0.7-0.5,1.6-1.1,1.9l-24,14.1c-2,1.2-3.9,1.4-5.3,0.6L277.2,327.9z"/>
				<g>
					<path class="st4" d="M265.5,335.8l0,3c0,0,0,0,0,0.1c0.1-0.2,0.1-0.4,0.1-0.6l0-3c0-0.1,0-0.2,0-0.3
						C265.5,335.3,265.5,335.6,265.5,335.8z"/>
				</g>
			</g>
		</g>
	</g>
</g>
<g>
	<path class="st0" d="M45.3,297.4c0.3,1,0.8,2.1,1.4,3.1c-7.6,6.4-6.5,15.2,3.4,20.9c11.1,6.4,29.2,6.4,40.3,0
		c8.2-4.7,10.4-11.7,6.5-17.5c1.1-1,2-2,2.8-3c7.1,6.9,6.3,15.7-2.4,22.2l9.2,5.4c3.5-1.2,7.8-1.2,10.4,0.4l33.6,19.4
		c3.2,1.8,2.8,5-0.9,7.2c-3.7,2.1-9.2,2.3-12.4,0.5l-33.6-19.4c-2.4-1.4-2.8-3.6-1.2-5.5l-9.3-5.5c-13.5,7.1-34.2,6.9-47.2-0.6
		C32.9,317.4,32.6,305.1,45.3,297.4z"/>
	<g>
		<g>
			<path class="st10" d="M49,279.9c12.1-7,31.8-7,44,0c5,2.9,8,6.6,8.8,10.3c-0.8,3.3-3.1,6.6-7.1,9.3c-1-0.8-2.1-1.6-3.4-2.3
				c-12.1-7-31.8-7-44,0c-0.6,0.3-1.2,0.7-1.7,1.1c-3-2.4-4.8-5.2-5.4-8C41.1,286.4,44,282.8,49,279.9z"/>
			<path class="st2" d="M102.6,295.8l-4.7-6.2l-14.4-6.7L71,281.8l-14.5,1.8l-10.1,5.2l-6.4,4.1l-1.2-6.7l2.2-7.7c0,0,5.5-3.6,5.8-4
				c0.3-0.3,12.9-4.8,12.9-4.8l12.5-0.8l10.1,1.3l10.3,3l6.8,4.7l5.1,6.4l0.6,8L102.6,295.8z"/>
			<polygon class="st2" points="35.3,287.9 35.3,300.9 38.8,295.3 			"/>
			<path class="st2" d="M93,288.6c-12.1-7-31.8-7-44,0c-3.8,2.2-6.4,4.8-7.9,7.6c-1.1-1-2.4-1.7-3-3c1.7-2.4,4.3-4.6,7.6-6.5
				c13.9-8,36.5-8,50.5,0c3.1,1.8,5.4,3.8,7.1,5.9c-0.6,1.3-1.4,2.6-2.5,3.6C99.4,293.4,96.8,290.8,93,288.6z"/>
			<path class="st10" d="M49,279.9c12.1-7,31.8-7,44,0c5,2.9,8,6.6,8.8,10.3c-0.9,3.8-3.8,7.4-8.8,10.3c-12.1,7-31.8,7-44,0
				c-5-2.9-8-6.6-8.8-10.3C41.1,286.4,44,282.8,49,279.9z"/>
			<path class="st2" d="M38.2,293.2c0.2,0.5,0.6,1,1.1,1.4l0-0.1l3.2,1.9l4,3.7l5.5,2.4l7.6,2.7l6.7,1.6l9.3,0.4l6-0.6l11.9-3.1
				l7.7-6.8c-0.1-0.1-0.1-0.3-0.2-0.4c1.1-1,2-2.3,2.5-3.6c0.2,0.3,0.4,0.5,0.6,0.8l2.7-5.6v13.5l0,0c0,5.3-3.5,10.6-10.4,14.6
				c-13.9,8-36.5,8-50.5,0C35.2,309.7,32.7,300.7,38.2,293.2z"/>
			<path class="st1" d="M98.3,299.1l2.8-2.5c-0.1-0.1-0.1-0.3-0.2-0.4c1.1-1,2-2.3,2.5-3.6c0.2,0.3,0.4,0.5,0.6,0.8l2.7-5.6v13.5
				l0,0c0,4.7-2.8,9.5-8.5,13.3V299.1z"/>
			<path class="st1" d="M45.8,302.4c13.9,8,36.5,8,50.5,0c13.9-8,13.9-21.1,0-29.1c-13.9-8-36.5-8-50.5,0S31.8,294.4,45.8,302.4z
				 M49,275.2c12.1-7,31.8-7,44,0c12.1,7,12.1,18.4,0,25.4c-12.1,7-31.8,7-44,0C36.9,293.6,36.9,282.2,49,275.2z"/>
			<g>
				<g>
					<polygon class="st8" points="119.6,317.2 99.8,305.7 97.2,310 117.1,321.5 					"/>
					<path class="st11" d="M116.6,320.4c0,1.1,0.8,1.6,1.8,1c1-0.6,1.8-1.9,1.8-3.1c0-1.1-0.8-1.6-1.8-1S116.6,319.3,116.6,320.4z"
						/>
					<path class="st11" d="M116.6,320.4c0,1.1,0.8,1.6,1.8,1c1-0.6,1.8-1.9,1.8-3.1c0-1.1-0.8-1.6-1.8-1S116.6,319.3,116.6,320.4z"
						/>
					<path class="st8" d="M96.8,308.9c0,1.1,0.8,1.6,1.8,1s1.8-1.9,1.8-3.1c0-1.1-0.8-1.6-1.8-1S96.8,307.8,96.8,308.9z"/>
				</g>
				<path class="st9" d="M106.8,321.2c0-4.9,3.4-10.8,7.6-13.2c2.2-1.2,4.1-1.3,5.5-0.5l0,0l41.8,24.3l-10.9,18.6l-41.4-24.1
					c-0.3-0.1-0.6-0.3-0.8-0.5l0,0l0,0C107.5,325,106.8,323.4,106.8,321.2z"/>
				<path class="st8" d="M158.7,337l-46.8-27c0.8-0.8,1.6-1.4,2.5-2c2.2-1.2,4.1-1.3,5.5-0.5l0,0l41.8,24.3L158.7,337z"/>
				<g>
					<ellipse transform="matrix(0.5 -0.866 0.866 0.5 -217.2932 305.9367)" class="st8" cx="156.3" cy="341.2" rx="10.8" ry="6.2"/>
					<path class="st9" d="M154.9,343.3c0,2.7,2.2,5,5,5c2.7,0,5-2.2,5-5s-2.2-5-5-5C157.1,338.3,154.9,340.5,154.9,343.3z"/>
					<circle class="st4" cx="162.2" cy="341.5" r="1.5"/>
				</g>
				<path class="st4" d="M155.7,332c2.3-1.3,4.3-1.3,5.7-0.3c-1.4-0.6-3.1-0.5-5.1,0.7c-4.2,2.4-7.6,8.3-7.6,13.2
					c0,2.3,0.7,3.9,2,4.7c-1.5-0.7-2.5-2.5-2.5-5.1C148.1,340.4,151.5,334.5,155.7,332z"/>
			</g>
			<g>
				<path class="st4" d="M49,275.2c12.1-7,31.8-7,44,0c6.3,3.6,9.3,8.5,9.1,13.3c-0.2-4.4-3.3-8.8-9.1-12.1c-12.1-7-31.8-7-44,0
					c-5.8,3.4-8.8,7.7-9.1,12.1C39.7,283.7,42.7,278.8,49,275.2z"/>
				<path class="st4" d="M45.8,302.4c13.9,8,36.5,8,50.5,0c6.7-3.9,10.2-8.9,10.4-14c0.3,5.5-3.2,11-10.4,15.1
					c-13.9,8-36.5,8-50.5,0c-7.2-4.2-10.7-9.7-10.4-15.1C35.6,293.5,39.1,298.6,45.8,302.4z"/>
			</g>
		</g>
	</g>
</g>
<g>
	<g>
		<g>
			<path class="st1" d="M164.5,275.3c0,0-3.7-1.9-6.1,0.9c-2.3,2.8-5.6,9.5-5.7,14c-0.1,4.5,3.6,4.2,5.7,3.1
				c2.2-1.1,8.5-10.3,8.9-12.1c0.4-1.8-0.5-4.2-1.1-4.7C165.8,276.1,164.5,275.3,164.5,275.3z"/>
			<path class="st8" d="M165.4,274.4l0.2,3.9c0,0.8-0.4,1.6-1.1,2c-0.7,0.4-1.6,0.7-2.9,0.4c-2.8-0.5-3.1-1.3-3.3-5.1
				C158.1,271.8,165.4,274.4,165.4,274.4z"/>
			<g>
				<path class="st1" d="M150.8,267.9c0,0-3.7-1.9-6.1,0.9c-2.3,2.8-5.6,9.5-5.7,14c-0.1,4.5,3.6,4.2,5.7,3.1
					c2.2-1.1,8.5-10.3,8.9-12.1s-0.5-4.2-1.1-4.7C152,268.6,150.8,267.9,150.8,267.9z"/>
				<path class="st8" d="M151.6,267l0.2,3.9c0,0.8-0.4,1.6-1.1,2c-0.7,0.4-1.6,0.7-2.9,0.4c-2.8-0.5-3.1-1.3-3.3-5.1
					C144.3,264.3,151.6,267,151.6,267z"/>
				<path class="st5" d="M185.1,195.6c-1.1-18.1-19.6,2.7-19.6,2.7l-12.6,12.4l-11.4,12.5c-2.2,2.4-3.3,5.7-2.8,9l4.6,35
					c0.2,1.7,1.7,3,3.5,3c0.5,0,1.1,0,1.7-0.1c4.1-0.6,3.8-4.5,3.8-4.5l-0.8-32.8l23.9-14.4C175.3,218.3,186.2,213.7,185.1,195.6z"
					/>
			</g>
			<path class="st5" d="M198.8,202.5c-1.1-18.1-19.6,2.7-19.6,2.7l-12.6,12.4L155.3,230c-2.2,2.4-3.3,5.7-2.8,9l4.6,35
				c0.2,1.7,1.7,3,3.5,3c0.5,0,1.1,0,1.7-0.1c4.1-0.6,3.8-4.5,3.8-4.5l-0.8-31.8l23.8-15.3C189,225.2,199.9,220.6,198.8,202.5z"/>
			<path class="st1" d="M187.9,144.6c14,5.8,13.7,14.1,13.7,14.1s-2.7,30.3-1.8,50.5c0.4,8.5-45,9.1-38.2-13.5
				c8-26.6,5-48.2,8.7-51.4C174.1,141,184.3,143.1,187.9,144.6z"/>
			<path class="st12" d="M192.4,151.9c-0.7,2.8-4.5,4.3-8.3,3.3c-3.9-1-6.4-4.1-5.7-6.9c0.7-2.8,4.5-4.3,8.3-3.3
				C190.6,145.9,193.1,149.1,192.4,151.9z"/>
			<path class="st4" d="M186.8,155.3l-2.6,2.8c-0.3,0.4-0.5,0.9-0.4,1.3l1.8,15.3c0,0.4-0.1,0.9-0.3,1.2l-5.5,7.2
				c-0.2,0.3-0.8,0.2-0.9-0.2l-3-9.5c-0.1-0.4-0.1-0.7,0-1.1l5.3-13.9c0.1-0.3,0.1-0.6,0.1-1l-0.8-3.7L186.8,155.3z"/>
			<path class="st4" d="M186.5,156.2c-0.8,0-1.7-0.1-2.6-0.3c-2-0.5-3.7-1.6-4.9-3c-1.2-1.5-1.6-3.2-1.2-4.8
				c0.8-3.2,4.9-4.9,9.1-3.8c4.2,1.1,7,4.6,6.1,7.8c-0.4,1.6-1.6,2.8-3.4,3.6C188.7,156,187.6,156.2,186.5,156.2z M184.4,145.3
				c-2.6,0-4.8,1.2-5.3,3.1c-0.3,1.2,0,2.4,1,3.6c1,1.2,2.5,2.1,4.2,2.6c1.7,0.4,3.5,0.4,4.9-0.2c1.4-0.5,2.3-1.5,2.6-2.7l0,0
				c0.6-2.5-1.7-5.2-5.2-6.1C185.8,145.4,185.1,145.3,184.4,145.3z"/>
			<path class="st12" d="M182.3,143.9c0,0,0.1,0.6-0.1,5c-0.1,1.4,4.8,2.7,6.1,1.4c1.3-1.3,0.8-2.6,1.1-7.3
				C189.6,138.3,182.3,143.9,182.3,143.9z"/>
			<path class="st13" d="M189.3,143c0,0-1.2,4.4-7.1,6.1l0.1-4L189.3,143z"/>
			
				<ellipse transform="matrix(0.2488 -0.9685 0.9685 0.2488 6.852 277.9768)" class="st12" cx="182.6" cy="134.6" rx="10.8" ry="10.8"/>
			<path class="st13" d="M185.1,135c0,0-5.9,2.5-10,2.6c-4.1,0-3.2-3.4-3.2-3.4l12.2-1.8L185.1,135z"/>
			<path class="st8" d="M173.9,135.6c0,0,5.2-2.2,9.7-1.3c1.1,0.2,2.1,0.8,2.7,1.6c0.2,0.3,0.5,0.5,0.8,0.6c0.8,0.2,2.1-3.2,3.7-3.2
				c1.6-0.1,2.6,1,1.3,3.1c-1.3,2-0.8,4.3-0.3,4.7c0.6,0.3,7.9-4.8,2.4-15.7c-5.5-10.9-20.6-4.7-22.7-2.5c0,0-2.3,2-4.2,0.2
				C167.3,123.1,165.2,138.8,173.9,135.6z"/>
			<path class="st12" d="M193.8,180.8v8.2c0,0.9-0.4,1.8-1.1,2.5l-16.8,15.3l1.9,2.9l23.2-15.2c1-0.8,1.7-1.9,1.8-3.2l1.6-15.2
				L193.8,180.8z"/>
			<path class="st1" d="M200.4,154.5c0,0,5.1,7.7,7,27.9c0,0-8.7,2.8-13.7,1.2C188.8,182,200.4,154.5,200.4,154.5z"/>
			<path class="st2" d="M192.8,164.2c0,0-2,10.7-2.1,15.7c0,1.4,0.8,2.6,2.1,3.1l0,0V164.2z"/>
		</g>
		<g>
			<path class="st9" d="M188.5,217.4l-3.7-0.5l-24-13.9c-0.8-0.4-2.1-0.4-3,0.1l-17,9.8l-2.2-0.3v2.2l0,0c0,0.3,0.2,0.6,0.5,0.8
				l27.2,15.7c0.8,0.4,2.1,0.4,3-0.1l18.5-10.7c0.5-0.3,0.7-0.7,0.7-1l0,0V217.4z"/>
			<path class="st6" d="M170.4,208.7l-1.7-1H150l-9.2,5.3l-2.2-0.3v2.2l0,0c0,0.3,0.2,0.6,0.5,0.8l27.2,15.7c0.4,0.2,1,0.3,1.5,0.3
				L170.4,208.7z"/>
			<path class="st9" d="M139.5,212.8l-1-0.1v2.2l0,0c0,0.3,0.2,0.6,0.5,0.8l0.5,0.3V212.8z"/>
			<path class="st9" d="M166.5,231.6c0.7,0.3,1.8,0.2,2.6-0.2v-3.8h-2.6V231.6z"/>
			<path class="st4" d="M166.2,229.2L139,213.5c-0.8-0.4-0.7-1.2,0.2-1.7l18.5-10.7c0.9-0.5,2.2-0.6,3-0.1l27.2,15.7
				c0.8,0.4,0.7,1.2-0.2,1.7l-18.5,10.7C168.3,229.6,167,229.6,166.2,229.2z"/>
			<path class="st8" d="M165.8,226.8l-22.6-13.1c-0.6-0.4-0.6-1,0.2-1.4l9.9-5.6c0.7-0.4,1.9-0.5,2.5-0.1l22.6,13.1
				c0.6,0.4,0.6,1-0.2,1.4l-9.9,5.6C167.5,227.1,166.4,227.2,165.8,226.8z"/>
		</g>
		<path class="st12" d="M158.8,200.6l-0.3,1.9c-0.2,1.6-0.2,3.2,0.1,4.8l0.3,1.7c0.2,0.9,0.9,1.7,1.9,1.8l0,0
			c0.7,0.1,1.4-0.4,1.5-1.1l0.4-4c0,0,1,1.3,1.5,1.3c0.5,0-0.6-4-1.7-6.3C161.5,198.4,158.8,200.6,158.8,200.6z"/>
		<path class="st12" d="M168,170.7l-2.9,5.8c-0.7,1.4-1.1,2.9-1.2,4.4l-1.3,19.8l-3.8-0.1l-1.7-22.2c-0.1-0.7,0-1.4,0.1-2.1l2-11.3
			L168,170.7z"/>
		<g>
			<path class="st5" d="M165.3,230.7l-2.3-3l-24-13.9c-0.8-0.4-1.4-1.6-1.4-2.7l0-19.6l-1.4-1.8l1.3-0.8l0,0
				c0.2-0.2,0.6-0.2,0.9,0.1l27.2,15.7c0.8,0.4,1.4,1.6,1.4,2.7l0,21.4c0,0.6-0.2,1-0.5,1.1l0,0L165.3,230.7z"/>
			<path class="st6" d="M148.7,219.4l-1.7-1l-9.4-16.2l0-10.7l-1.4-1.8l1.3-0.8l0,0c0.2-0.2,0.6-0.2,0.9,0.1l27.2,15.7
				c0.4,0.2,0.8,0.7,1,1.2L148.7,219.4z"/>
			<path class="st9" d="M136.9,190.5l-0.6-0.8l1.3-0.8l0,0c0.2-0.2,0.6-0.2,0.9,0.1l0.5,0.3L136.9,190.5z"/>
			<path class="st7" d="M165.9,205c0.6,0.5,1.1,1.4,1.1,2.3l-2.7,1.5l-1.3-2.2L165.9,205z"/>
			<path class="st9" d="M164.4,205.5l-27.2-15.7c-0.8-0.4-1.4,0-1.4,1.1l0,21.4c0,1,0.6,2.2,1.4,2.7l27.2,15.7
				c0.8,0.4,1.4,0,1.4-1.1l0-21.4C165.8,207.2,165.2,206,164.4,205.5z"/>
		</g>
		<path class="st12" d="M177.8,209.7l-0.4,0.9c-0.5,1-1.3,1.9-2.3,2.5l-2.7,1.7c-0.8,0.5-1.9,0.6-2.8,0.1c0,0-0.1,0-0.1-0.1
			c-0.9-0.5-0.9-1.8-0.2-2.5l2.8-2.9c0,0-1.6,1.2-2,0.7c-0.3-0.4,1.5-2.1,3-2.2c1.4-0.1,2.8-1.2,2.8-1.2L177.8,209.7z"/>
		<path class="st1" d="M170.6,144.3c0,0-10.3,11.3-14.5,21.6c0,0,3.5,6.4,12.2,8.9C177,177.2,170.6,144.3,170.6,144.3z"/>
		<path class="st2" d="M166.3,174l1.7-16.2l-4,15.2C164.8,173.4,165.5,173.7,166.3,174z"/>
		<path class="st4" d="M178.4,142l-2.8-0.8c0,0,1.3,2.1,3.3,2.6c1.9,0.5,2.2-1.1,2.2-1.1L178.4,142z"/>
	</g>
	<circle class="st4" cx="191.7" cy="137.5" r="1.5"/>
</g>
<g>
	<g>
		<path class="st0" d="M41.8,241.7c-8.8,5.1-23.2,5.1-32,0c-8.9-5.1-8.9-13.4,0-18.5c8.8-5.1,23.2-5.1,32,0
			C50.7,228.3,50.7,236.5,41.8,241.7z"/>
		<path class="st1" d="M51.6,221.2V214h-1.4c-1.2-2.1-3.3-4.1-6.2-5.8c-10.1-5.8-26.4-5.8-36.5,0c-2.9,1.7-5,3.7-6.2,5.8H0v7.2h0
			c0,3.8,2.5,7.6,7.5,10.6c10.1,5.8,26.4,5.8,36.5,0C49,228.8,51.6,225,51.6,221.2z"/>
		<ellipse class="st1" cx="25.8" cy="214" rx="25.8" ry="14.9"/>
		<path class="st4" d="M44,224.5c-10.1,5.8-26.4,5.8-36.5,0c-4.8-2.8-7.3-6.4-7.5-10.1c-0.2,4,2.3,8,7.5,11
			c10.1,5.8,26.4,5.8,36.5,0c5.2-3,7.7-7,7.5-11C51.3,218.1,48.8,221.7,44,224.5z"/>
	</g>
	<g>
		<path class="st4" d="M13.4,218.9c-0.4-0.3-0.7-0.6-0.7-0.9l0-9.7c0-0.7,1-1.3,2.3-1.3c1.3,0,2.3,0.6,2.3,1.3l0,8l23.3-2.9
			c1.3-0.2,2.5,0.3,2.8,1c0.3,0.7-0.5,1.4-1.8,1.6l-26.1,3.2c-0.7,0.1-1.4,0-1.9-0.3C13.5,219,13.4,218.9,13.4,218.9z"/>
	</g>
</g>
<g>
	<g>
		<path class="st2" d="M194,69.8l-38.5-22.2c-0.8-0.4-1.5-0.5-2.2-0.2c0,0,0,0,0,0l-4.6,2.2c0,0,1.7,0.6,2.7,1l-5.6,28
			c-0.5,2.3,0.6,4.9,2.3,5.9l36.8,21.2l-0.7,3.3l4.6-2.2l0,0c0.8-0.4,1.4-1.2,1.7-2.5l5.7-28.6C196.8,73.4,195.7,70.8,194,69.8z"/>
		<path class="st1" d="M182.1,108.8l-38.5-22.2c-1.7-1-2.7-3.6-2.3-5.9l5.7-28.6c0.5-2.3,2.2-3.3,3.9-2.3L189.4,72
			c1.7,1,2.7,3.6,2.3,5.9l-5.7,28.6C185.5,108.8,183.8,109.8,182.1,108.8z"/>
		<path class="st4" d="M190.2,71.6l-38.5-22.2c-0.9-0.5-1.8-0.5-2.5,0c0.5-0.1,1.1,0,1.7,0.3L189.4,72c1.7,1,2.7,3.6,2.3,5.9
			l-5.7,28.6c-0.2,1.1-0.7,1.9-1.4,2.3c1.1-0.2,2-1.1,2.3-2.7l5.7-28.6C193,75.3,192,72.6,190.2,71.6z"/>
	</g>
	<g>
		<path class="st4" d="M160,76.8c-0.3,1.7-1.8,2.3-3.2,1.5c-1.4-0.8-2.3-2.8-2-4.5c0.3-1.7,1.8-2.3,3.2-1.5
			C159.4,73.1,160.3,75.1,160,76.8z"/>
		<ellipse transform="matrix(0.9219 -0.3875 0.3875 0.9219 -18.0151 70.256)" class="st4" cx="165.2" cy="79.8" rx="2.5" ry="3.5"/>
		<path class="st4" d="M175.7,85.8c-0.3,1.7-1.8,2.3-3.2,1.5c-1.4-0.8-2.3-2.8-2-4.5c0.3-1.7,1.8-2.3,3.2-1.5
			C175.1,82.2,176,84.2,175.7,85.8z"/>
	</g>
</g>
<g>
	<g>
		<path class="st9" d="M344.1,22.6L305.6,0.4c-0.8-0.4-1.5-0.5-2.2-0.2c0,0,0,0,0,0l-4.6,2.2c0,0,1.7,0.6,2.7,1l-5.6,28
			c-0.5,2.3,0.6,4.9,2.3,5.9l36.8,21.2l-0.7,3.3l4.6-2.2l0,0c0.8-0.4,1.4-1.2,1.7-2.5l5.7-28.6C346.8,26.2,345.8,23.6,344.1,22.6z"
			/>
		<path class="st8" d="M332.1,61.6l-38.5-22.2c-1.7-1-2.7-3.6-2.3-5.9L297,4.9c0.5-2.3,2.2-3.3,3.9-2.3l38.5,22.2
			c1.7,1,2.7,3.6,2.3,5.9l-5.7,28.6C335.6,61.6,333.8,62.6,332.1,61.6z"/>
		<path class="st4" d="M340.3,24.4L301.8,2.2c-0.9-0.5-1.8-0.5-2.5,0c0.5-0.1,1.1,0,1.7,0.3l38.5,22.2c1.7,1,2.7,3.6,2.3,5.9
			l-5.7,28.6c-0.2,1.1-0.7,1.9-1.4,2.3c1.1-0.2,2-1.1,2.3-2.7l5.7-28.6C343,28.1,342,25.4,340.3,24.4z"/>
	</g>
	<g>
		<path class="st4" d="M310,29.6c-0.3,1.7-1.8,2.3-3.2,1.5c-1.4-0.8-2.3-2.8-2-4.5s1.8-2.3,3.2-1.5C309.5,25.9,310.4,27.9,310,29.6z
			"/>
		<path class="st4" d="M317.9,34.1c-0.3,1.7-1.8,2.3-3.2,1.5c-1.4-0.8-2.3-2.8-2-4.5c0.3-1.7,1.8-2.3,3.2-1.5
			C317.3,30.4,318.2,32.4,317.9,34.1z"/>
		<path class="st4" d="M325.8,38.6c-0.3,1.7-1.8,2.3-3.2,1.5s-2.3-2.8-2-4.5c0.3-1.7,1.8-2.3,3.2-1.5C325.2,35,326.1,37,325.8,38.6z
			"/>
	</g>
</g>
</svg>
