<?xml version="1.0" encoding="utf-8"?>
<!-- Generator: Adobe Illustrator 23.1.1, SVG Export Plug-In . SVG Version: 6.00 Build 0)  -->
<svg version="1.1" id="Capa_1" xmlns="http://www.w3.org/2000/svg" xmlns:xlink="http://www.w3.org/1999/xlink" x="0px" y="0px"
	 viewBox="0 0 664.2 80" style="enable-background:new 0 0 664.2 80;" xml:space="preserve">
<style type="text/css">
	.st0{fill:#00A6AA;}
	.st1{fill:#185BA7;}
	.st2{fill:#00A7D5;}
	.st3{opacity:0.2;}
	.st4{fill:url(#SVGID_1_);}
	.st5{fill:url(#SVGID_2_);}
	.st6{fill:url(#SVGID_3_);}
	.st7{fill:url(#SVGID_4_);}
	.st8{fill:url(#SVGID_5_);}
	.st9{fill:url(#SVGID_6_);}
	.st10{fill:url(#SVGID_7_);}
	.st11{fill:url(#SVGID_8_);}
	.st12{fill:#697386;}
</style>
<g>
	<path class="st0" d="M90.3,43.8c0,1.2-0.4,2.3-1.3,3.2L68,68c-15.5,15.5-40.8,15.5-56.3,0C4.1,60.5,0,50.5,0,39.8
		c0-10.6,4.1-20.6,11.7-28.2C19.2,4.2,29.2,0,39.8,0C50.5,0,60.5,4.2,68,11.7c1.8,1.8,1.8,4.7,0,6.5c-1.8,1.8-4.7,1.8-6.5,0
		c-5.8-5.8-13.5-9-21.7-9c-8.2,0-15.9,3.2-21.7,9c-5.8,5.8-9,13.5-9,21.7c0,8.2,3.2,15.9,9,21.7c12,12,31.4,12,43.4,0l20.9-20.9
		c1.8-1.8,4.7-1.8,6.5,0C89.8,41.5,90.3,42.7,90.3,43.8z"/>
</g>
<g>
	<path class="st1" d="M58,26.2c0,1.2-0.4,2.3-1.3,3.2c-1.8,1.8-4.7,1.8-6.5,0c-5.7-5.7-15-5.7-20.7,0c-2.8,2.8-4.3,6.4-4.3,10.4
		c0,3.9,1.5,7.6,4.3,10.4c2.8,2.8,6.4,4.3,10.4,4.3c3.9,0,7.6-1.5,10.4-4.3c1.8-1.8,4.7-1.8,6.5,0c1.8,1.8,1.8,4.7,0,6.5
		c-4.5,4.5-10.5,7-16.8,7c-6.4,0-12.3-2.5-16.8-7c-4.5-4.5-7-10.5-7-16.8c0-6.4,2.5-12.3,7-16.8c9.3-9.3,24.4-9.3,33.6,0
		C57.5,23.9,58,25.1,58,26.2z"/>
</g>
<g>
	<path class="st1" d="M152.1,39.8c0,10.6-4.1,20.6-11.7,28.2c-15.5,15.5-40.8,15.5-56.3,0c-1.8-1.8-1.8-4.7,0-6.5
		c1.8-1.8,4.7-1.8,6.5,0c12,12,31.4,12,43.4,0c5.8-5.8,9-13.5,9-21.7c0-8.2-3.2-15.9-9-21.7c-5.8-5.8-13.5-9-21.7-9
		c-8.2,0-15.9,3.2-21.7,9L69.6,39.1c-1.8,1.8-4.7,1.8-6.5,0c-1.8-1.8-1.8-4.7,0-6.5l20.9-20.9c15.5-15.5,40.8-15.5,56.3,0
		C147.9,19.2,152.1,29.2,152.1,39.8z"/>
</g>
<g>
	<path class="st2" d="M136.1,39.8c0,6.4-2.5,12.3-7,16.8c-4.5,4.5-10.5,7-16.8,7c-6.4,0-12.3-2.5-16.8-7c-1.8-1.8-1.8-4.7,0-6.5
		c1.8-1.8,4.7-1.8,6.5,0c2.8,2.8,6.4,4.3,10.4,4.3c3.9,0,7.6-1.5,10.4-4.3c2.8-2.8,4.3-6.4,4.3-10.4c0-3.9-1.5-7.6-4.3-10.4
		c-5.7-5.7-15-5.7-20.7,0c-1.8,1.8-4.7,1.8-6.5,0c-1.8-1.8-1.8-4.7,0-6.5c9.3-9.3,24.4-9.3,33.6,0C133.6,27.5,136.1,33.5,136.1,39.8
		z"/>
</g>
<g>
	<g class="st3">
		<linearGradient id="SVGID_1_" gradientUnits="userSpaceOnUse" x1="-1.687474e-06" y1="39.8492" x2="90.2426" y2="39.8492">
			<stop  offset="0" style="stop-color:#FFFFFF"/>
			<stop  offset="0.108" style="stop-color:#FAFAFA"/>
			<stop  offset="0.2318" style="stop-color:#ECECEC"/>
			<stop  offset="0.3633" style="stop-color:#D5D5D5"/>
			<stop  offset="0.5004" style="stop-color:#B5B5B5"/>
			<stop  offset="0.6417" style="stop-color:#8C8C8C"/>
			<stop  offset="0.7865" style="stop-color:#595959"/>
			<stop  offset="0.9316" style="stop-color:#1E1E1E"/>
			<stop  offset="1" style="stop-color:#000000"/>
		</linearGradient>
		<path class="st4" d="M88.9,47.1c0.9-0.9,1.3-2,1.3-3.1c-3.5,0.5-6.9,2.1-9.4,4.7L65.1,64.5c-13.7,13.7-36.1,14.1-50,0.5
			c-14-13.8-14-36.2-0.2-50c12.5-12.5,32.2-13.7,46-3.4c2.5,1.8,5.4,3,8.4,3.3c0-1.1-0.5-2.3-1.3-3.2C60.5,4.2,50.5,0,39.8,0
			C29.2,0,19.2,4.2,11.7,11.7C4.1,19.2,0,29.2,0,39.9S4.1,60.5,11.7,68C27.2,83.5,52.5,83.5,68,68L88.9,47.1z"/>
		
			<linearGradient id="SVGID_2_" gradientUnits="userSpaceOnUse" x1="3761.3406" y1="660.0439" x2="3761.3406" y2="570.0853" gradientTransform="matrix(0 -1 1 0 -560.5529 3801.0752)">
			<stop  offset="0" style="stop-color:#FFFFFF"/>
			<stop  offset="0.108" style="stop-color:#FAFAFA"/>
			<stop  offset="0.2318" style="stop-color:#ECECEC"/>
			<stop  offset="0.3633" style="stop-color:#D5D5D5"/>
			<stop  offset="0.5004" style="stop-color:#B5B5B5"/>
			<stop  offset="0.6417" style="stop-color:#8C8C8C"/>
			<stop  offset="0.7865" style="stop-color:#595959"/>
			<stop  offset="0.9316" style="stop-color:#1E1E1E"/>
			<stop  offset="1" style="stop-color:#000000"/>
		</linearGradient>
		<path class="st5" d="M14.9,14.9c-13.8,13.8-13.8,36.3,0.2,50c13.8,13.6,36.2,13.2,50-0.5l15.8-15.8c2.6-2.6,5.9-4.2,9.4-4.7
			c0-0.1,0-0.1,0-0.2c0-1.2-0.4-2.3-1.3-3.2c-1.8-1.8-4.7-1.8-6.5,0L61.5,61.5c-12,12-31.4,12-43.4,0c-5.8-5.8-9-13.5-9-21.7
			c0-8.2,3.2-15.9,9-21.7c5.8-5.8,13.5-9,21.7-9c8.2,0,15.9,3.2,21.7,9c1.8,1.8,4.7,1.8,6.5,0c0.9-0.9,1.4-2.1,1.3-3.3
			c-3.1-0.3-6-1.4-8.4-3.3C47.1,1.2,27.4,2.3,14.9,14.9z"/>
	</g>
	<g class="st3">
		
			<linearGradient id="SVGID_3_" gradientUnits="userSpaceOnUse" x1="3761.2834" y1="644.7203" x2="3761.2834" y2="589.6774" gradientTransform="matrix(0 -1 1 0 -560.5529 3801.0752)">
			<stop  offset="0" style="stop-color:#FFFFFF"/>
			<stop  offset="0.108" style="stop-color:#FAFAFA"/>
			<stop  offset="0.2318" style="stop-color:#ECECEC"/>
			<stop  offset="0.3633" style="stop-color:#D5D5D5"/>
			<stop  offset="0.5004" style="stop-color:#B5B5B5"/>
			<stop  offset="0.6417" style="stop-color:#8C8C8C"/>
			<stop  offset="0.7865" style="stop-color:#595959"/>
			<stop  offset="0.9316" style="stop-color:#1E1E1E"/>
			<stop  offset="1" style="stop-color:#000000"/>
		</linearGradient>
		<path class="st6" d="M25.3,27.2c-6.2,7.2-6.2,18,0,25.2c6.5,7.4,17.2,8.6,25,3.5c2.3-1.5,5-2.3,7.7-2.5c0-1.2-0.4-2.4-1.3-3.3
			c-1.8-1.8-4.7-1.8-6.5,0c-2.8,2.8-6.4,4.3-10.4,4.3c-3.9,0-7.6-1.5-10.4-4.3c-2.8-2.8-4.3-6.4-4.3-10.4c0-3.9,1.5-7.6,4.3-10.4
			c5.7-5.7,15-5.7,20.7,0c1.8,1.8,4.7,1.8,6.5,0c0.9-0.9,1.3-2.1,1.3-3.2c0,0,0,0,0,0c-2.7-0.2-5.4-1-7.7-2.5
			C42.5,18.6,31.8,19.8,25.3,27.2z"/>
		<linearGradient id="SVGID_4_" gradientUnits="userSpaceOnUse" x1="16.0302" y1="39.8071" x2="57.9785" y2="39.8071">
			<stop  offset="0" style="stop-color:#FFFFFF"/>
			<stop  offset="0.108" style="stop-color:#FAFAFA"/>
			<stop  offset="0.2318" style="stop-color:#ECECEC"/>
			<stop  offset="0.3633" style="stop-color:#D5D5D5"/>
			<stop  offset="0.5004" style="stop-color:#B5B5B5"/>
			<stop  offset="0.6417" style="stop-color:#8C8C8C"/>
			<stop  offset="0.7865" style="stop-color:#595959"/>
			<stop  offset="0.9316" style="stop-color:#1E1E1E"/>
			<stop  offset="1" style="stop-color:#000000"/>
		</linearGradient>
		<path class="st7" d="M23,23c-4.5,4.5-7,10.5-7,16.8c0,6.4,2.5,12.3,7,16.8c4.5,4.5,10.5,7,16.8,7c6.4,0,12.3-2.5,16.8-7
			c0.9-0.9,1.3-2,1.3-3.2c-2.7,0.2-5.4,1-7.7,2.5c-7.8,5.1-18.5,3.9-25-3.5c-6.2-7.2-6.2-18,0-25.2c6.5-7.4,17.2-8.6,25-3.5
			c2.3,1.5,5,2.3,7.7,2.5c0-1.2-0.5-2.3-1.3-3.2C47.4,13.7,32.3,13.7,23,23z"/>
	</g>
	<g class="st3">
		
			<linearGradient id="SVGID_5_" gradientUnits="userSpaceOnUse" x1="3761.2261" y1="733.0436" x2="3761.2261" y2="642.5015" gradientTransform="matrix(0 -1 1 0 -560.5529 3801.0752)">
			<stop  offset="0" style="stop-color:#FFFFFF"/>
			<stop  offset="0.108" style="stop-color:#FAFAFA"/>
			<stop  offset="0.2318" style="stop-color:#ECECEC"/>
			<stop  offset="0.3633" style="stop-color:#D5D5D5"/>
			<stop  offset="0.5004" style="stop-color:#B5B5B5"/>
			<stop  offset="0.6417" style="stop-color:#8C8C8C"/>
			<stop  offset="0.7865" style="stop-color:#595959"/>
			<stop  offset="0.9316" style="stop-color:#1E1E1E"/>
			<stop  offset="1" style="stop-color:#000000"/>
		</linearGradient>
		<path class="st8" d="M137.2,64.7c13.8-13.8,13.8-36.3-0.2-50C123.2,1,100.8,1.4,87,15.2L71.3,30.9c-2.6,2.6-5.9,4.2-9.4,4.7
			c0,1.2,0.4,2.5,1.3,3.4c1.8,1.8,4.7,1.8,6.5,0l20.9-20.9c5.8-5.8,13.5-9,21.7-9c8.2,0,15.9,3.2,21.7,9c5.8,5.8,9,13.5,9,21.7
			c0,8.2-3.2,15.9-9,21.7c-12,12-31.4,12-43.4,0c-1.8-1.8-4.7-1.8-6.5,0c-0.9,0.9-1.3,2.1-1.3,3.3c3.1,0.3,6,1.4,8.4,3.3
			C105,78.4,124.7,77.3,137.2,64.7z"/>
		<linearGradient id="SVGID_6_" gradientUnits="userSpaceOnUse" x1="61.8489" y1="39.8013" x2="152.0907" y2="39.8013">
			<stop  offset="0" style="stop-color:#FFFFFF"/>
			<stop  offset="0.108" style="stop-color:#FAFAFA"/>
			<stop  offset="0.2318" style="stop-color:#ECECEC"/>
			<stop  offset="0.3633" style="stop-color:#D5D5D5"/>
			<stop  offset="0.5004" style="stop-color:#B5B5B5"/>
			<stop  offset="0.6417" style="stop-color:#8C8C8C"/>
			<stop  offset="0.7865" style="stop-color:#595959"/>
			<stop  offset="0.9316" style="stop-color:#1E1E1E"/>
			<stop  offset="1" style="stop-color:#000000"/>
		</linearGradient>
		<path class="st9" d="M63.2,32.6c-0.8,0.8-1.3,1.9-1.3,3.1c3.5-0.5,6.9-2.1,9.4-4.7L87,15.2c13.7-13.7,36.1-14.1,50-0.5
			c14,13.8,14,36.2,0.2,50c-12.5,12.5-32.2,13.7-46,3.4c-2.5-1.8-5.4-3-8.4-3.3c0,1.1,0.5,2.3,1.3,3.2c15.5,15.5,40.8,15.5,56.3,0
			c7.5-7.5,11.7-17.5,11.7-28.2s-4.1-20.6-11.7-28.2c-15.5-15.5-40.8-15.5-56.3,0L63.2,32.6z"/>
	</g>
	<g class="st3">
		
			<linearGradient id="SVGID_7_" gradientUnits="userSpaceOnUse" x1="3761.2834" y1="641.3149" x2="3761.2834" y2="693.7437" gradientTransform="matrix(0 -1 1 0 -560.5529 3801.0752)">
			<stop  offset="0" style="stop-color:#FFFFFF"/>
			<stop  offset="0.108" style="stop-color:#FAFAFA"/>
			<stop  offset="0.2318" style="stop-color:#ECECEC"/>
			<stop  offset="0.3633" style="stop-color:#D5D5D5"/>
			<stop  offset="0.5004" style="stop-color:#B5B5B5"/>
			<stop  offset="0.6417" style="stop-color:#8C8C8C"/>
			<stop  offset="0.7865" style="stop-color:#595959"/>
			<stop  offset="0.9316" style="stop-color:#1E1E1E"/>
			<stop  offset="1" style="stop-color:#000000"/>
		</linearGradient>
		<path class="st10" d="M126.9,39.8c0,3.9-1.5,7.6-4.3,10.4c-2.8,2.8-6.4,4.3-10.4,4.3c-3.9,0-7.6-1.5-10.4-4.3
			c-1.8-1.8-4.7-1.8-6.5,0c-0.9,0.9-1.3,2.1-1.3,3.3c2.7,0.2,5.4,1,7.7,2.5c7.8,5.1,18.5,3.9,25-3.5c6.2-7.2,6.2-18,0-25.2
			c-6.5-7.4-17.2-8.6-25-3.5c-2.3,1.5-5,2.3-7.7,2.5c0,1.2,0.4,2.4,1.3,3.3c1.8,1.8,4.7,1.8,6.5,0c5.7-5.7,15-5.7,20.7,0
			C125.4,32.2,126.9,35.9,126.9,39.8z"/>
		<linearGradient id="SVGID_8_" gradientUnits="userSpaceOnUse" x1="94.1125" y1="39.8071" x2="136.0605" y2="39.8071">
			<stop  offset="0" style="stop-color:#FFFFFF"/>
			<stop  offset="0.108" style="stop-color:#FAFAFA"/>
			<stop  offset="0.2318" style="stop-color:#ECECEC"/>
			<stop  offset="0.3633" style="stop-color:#D5D5D5"/>
			<stop  offset="0.5004" style="stop-color:#B5B5B5"/>
			<stop  offset="0.6417" style="stop-color:#8C8C8C"/>
			<stop  offset="0.7865" style="stop-color:#595959"/>
			<stop  offset="0.9316" style="stop-color:#1E1E1E"/>
			<stop  offset="1" style="stop-color:#000000"/>
		</linearGradient>
		<path class="st11" d="M126.8,27.2c6.2,7.2,6.2,18,0,25.2c-6.5,7.4-17.2,8.6-25,3.5c-2.3-1.5-5-2.3-7.7-2.5c0,1.2,0.5,2.3,1.3,3.2
			c4.5,4.5,10.5,7,16.8,7c6.4,0,12.3-2.5,16.8-7c4.5-4.5,7-10.5,7-16.8c0-6.4-2.5-12.3-7-16.8c-9.3-9.3-24.4-9.3-33.6,0
			c-0.9,0.9-1.3,2-1.3,3.2c2.7-0.2,5.4-1,7.7-2.5C109.6,18.6,120.3,19.8,126.8,27.2z"/>
	</g>
</g>
<g>
	<path class="st12" d="M197,60.8c-1,0.6-2,1.1-3.2,1.6c-1.2,0.5-2.5,0.9-3.9,1.1c-1.4,0.3-2.8,0.4-4.4,0.4c-3.2,0-6.2-0.6-8.8-1.7
		c-2.6-1.1-4.9-2.7-6.8-4.7c-1.9-2-3.3-4.3-4.3-6.8c-1-2.6-1.5-5.3-1.5-8.2c0-3.1,0.5-6,1.7-8.6c1.1-2.7,2.6-5,4.6-7
		c2-2,4.2-3.6,6.8-4.7c2.6-1.1,5.4-1.7,8.4-1.7c2.1,0,4.1,0.3,6,0.9c1.9,0.6,3.7,1.4,5.3,2.3l-0.9,1.8c-1.5-0.9-3.1-1.6-4.9-2.2
		c-1.8-0.6-3.6-0.8-5.6-0.8c-2.6,0-5.1,0.5-7.5,1.5c-2.4,1-4.4,2.4-6.2,4.3c-1.8,1.8-3.1,3.9-4.2,6.4c-1,2.4-1.5,5-1.5,7.8
		c0,2.6,0.4,5.1,1.3,7.5c0.9,2.4,2.2,4.4,3.9,6.2c1.7,1.8,3.7,3.2,6.1,4.2c2.4,1,5,1.5,8,1.5c2,0,3.9-0.3,5.6-0.8
		c1.8-0.6,3.4-1.3,4.8-2.2L197,60.8z"/>
	<path class="st12" d="M205.5,42.4c0-3,0.6-5.8,1.7-8.4c1.1-2.6,2.7-4.9,4.6-6.9c2-2,4.3-3.6,6.9-4.7c2.6-1.1,5.4-1.7,8.4-1.7
		c3,0,5.8,0.6,8.4,1.7c2.6,1.1,4.9,2.7,6.9,4.7c2,2,3.6,4.3,4.7,6.9c1.1,2.6,1.7,5.4,1.7,8.4c0,3-0.6,5.8-1.7,8.4
		c-1.1,2.6-2.7,4.9-4.7,6.9c-2,2-4.3,3.5-6.9,4.7c-2.6,1.1-5.4,1.7-8.4,1.7c-3,0-5.8-0.5-8.4-1.6c-2.6-1.1-4.9-2.6-6.9-4.5
		c-2-1.9-3.5-4.2-4.6-6.9C206.1,48.4,205.5,45.5,205.5,42.4z M207.6,42.5c0,2.7,0.5,5.3,1.5,7.6c1,2.4,2.4,4.4,4.2,6.2
		c1.8,1.8,3.8,3.2,6.2,4.2c2.4,1,4.9,1.5,7.5,1.5c2.8,0,5.3-0.5,7.7-1.5c2.4-1,4.5-2.4,6.2-4.2c1.8-1.8,3.2-3.9,4.2-6.3
		c1-2.4,1.6-4.9,1.6-7.6c0-2.7-0.5-5.3-1.5-7.7c-1-2.4-2.4-4.5-4.2-6.3s-3.9-3.2-6.3-4.3c-2.4-1-4.9-1.6-7.6-1.6
		c-2.8,0-5.3,0.5-7.7,1.6c-2.4,1.1-4.5,2.5-6.2,4.4c-1.8,1.8-3.1,4-4.1,6.3C208.1,37.3,207.6,39.8,207.6,42.5z"/>
	<path class="st12" d="M260,63.5V21.2h10.1c4,0,7.5,0.7,10.4,1.9c2.9,1.3,5.2,3,7,5.1c1.8,2.1,3.1,4.4,3.9,6.9
		c0.8,2.5,1.3,5,1.3,7.4c0,3.2-0.6,6.1-1.7,8.7c-1.1,2.6-2.6,4.8-4.6,6.6s-4.1,3.2-6.6,4.2c-2.5,1-5.1,1.5-7.8,1.5H260z M262.1,61.6
		h9.4c2.6,0,5.1-0.4,7.4-1.3c2.3-0.9,4.4-2.2,6.1-3.8c1.7-1.7,3.1-3.7,4.1-6c1-2.4,1.5-5,1.5-8c0-2.4-0.4-4.7-1.2-7
		c-0.8-2.3-2-4.4-3.7-6.2c-1.7-1.9-3.8-3.3-6.4-4.4c-2.6-1.1-5.6-1.6-9.2-1.6h-8.1V61.6z"/>
	<path class="st12" d="M303.9,21.2h25.7v2h-23.6v18.1h21.3v1.9h-21.3v18.4h24.5v2h-26.5V21.2z"/>
	<path class="st12" d="M337.3,56.1c0.9-0.8,1.9-1.3,3-1.3c1,0,2,0.4,2.9,1.3c0.9,0.8,1.3,1.9,1.3,3.1c0,1.3-0.5,2.4-1.3,3.2
		c-0.9,0.8-1.9,1.2-2.9,1.2c-1.1,0-2.1-0.4-3-1.2s-1.3-1.8-1.3-3.2C335.9,58,336.4,56.9,337.3,56.1z"/>
	<path class="st12" d="M384.2,59.9c-0.5,0.4-1.4,0.9-2.7,1.6c-1.3,0.7-2.9,1.3-4.8,1.8c-1.9,0.5-4,0.8-6.2,0.7
		c-3.5-0.1-6.6-0.7-9.3-1.9c-2.7-1.2-5.1-2.8-7-4.8c-1.9-2-3.4-4.4-4.3-7c-1-2.6-1.5-5.5-1.5-8.5c0-3.4,0.5-6.4,1.5-9.2
		c1-2.8,2.5-5.2,4.4-7.3c1.9-2,4.2-3.6,6.8-4.7c2.6-1.1,5.6-1.7,8.8-1.7c3,0,5.6,0.4,7.9,1.2c2.3,0.8,4.1,1.7,5.6,2.6l-3.4,8.2
		c-1-0.8-2.3-1.5-4-2.4c-1.7-0.8-3.6-1.2-5.7-1.2c-1.7,0-3.3,0.4-4.8,1.1c-1.5,0.7-2.9,1.7-4.1,3c-1.2,1.3-2.1,2.8-2.8,4.5
		c-0.7,1.7-1,3.6-1,5.6c0,2.1,0.3,4.1,0.9,5.8c0.6,1.8,1.5,3.3,2.7,4.5c1.2,1.3,2.5,2.2,4.2,2.9c1.6,0.7,3.5,1,5.5,1
		c2.4,0,4.4-0.4,6.1-1.1c1.7-0.8,3-1.6,3.8-2.4L384.2,59.9z"/>
	<path class="st12" d="M390.2,41.5c0-3,0.6-5.9,1.7-8.6c1.2-2.7,2.8-5.1,4.8-7.2c2.1-2.1,4.4-3.8,7.2-4.9c2.7-1.2,5.6-1.8,8.8-1.8
		c3.1,0,6,0.6,8.7,1.8c2.7,1.2,5.1,2.8,7.2,4.9c2.1,2.1,3.7,4.5,4.9,7.2c1.2,2.7,1.8,5.6,1.8,8.6c0,3.1-0.6,6-1.8,8.8
		s-2.8,5.1-4.9,7.2c-2.1,2.1-4.5,3.7-7.2,4.8c-2.7,1.2-5.6,1.7-8.7,1.7c-3.1,0-6-0.6-8.8-1.7c-2.7-1.2-5.1-2.8-7.2-4.8
		c-2.1-2.1-3.7-4.5-4.8-7.2C390.8,47.6,390.2,44.6,390.2,41.5z M399.2,41.5c0,2,0.3,3.8,1,5.5c0.7,1.7,1.7,3.2,2.9,4.5
		c1.3,1.3,2.7,2.3,4.4,3c1.7,0.7,3.5,1.1,5.4,1.1c1.9,0,3.6-0.4,5.2-1.1c1.6-0.7,3-1.7,4.2-3c1.2-1.3,2.1-2.8,2.8-4.5
		c0.7-1.7,1-3.5,1-5.5c0-2-0.4-3.9-1-5.6c-0.7-1.7-1.7-3.2-2.9-4.5c-1.2-1.3-2.7-2.3-4.3-3c-1.6-0.7-3.4-1.1-5.3-1.1
		c-1.9,0-3.7,0.4-5.3,1.1c-1.6,0.7-3.1,1.7-4.3,3c-1.2,1.3-2.2,2.8-2.9,4.5C399.5,37.7,399.2,39.5,399.2,41.5z"/>
	<path class="st12" d="M444,63.5v-46h0.1l24.5,34.8l-3.7-0.8l24.5-34h0.1v46h-8.7V37.2l0.5,4.5l-14.9,21.2h-0.1l-15.4-21.2l1.5-4.1
		v26H444z"/>
	<path class="st12" d="M514.3,19.4c3.6,0,6.7,0.6,9.2,1.8c2.5,1.2,4.4,2.9,5.8,5.2c1.3,2.2,2,4.9,2,7.9c0,1.8-0.3,3.6-0.8,5.4
		c-0.5,1.8-1.4,3.5-2.6,5c-1.2,1.5-2.8,2.7-4.7,3.6c-2,0.9-4.4,1.3-7.3,1.3h-6.2v14h-8.7V19.4H514.3z M515.8,41.1
		c1.3,0,2.4-0.2,3.3-0.7c0.9-0.5,1.6-1,2.1-1.7c0.5-0.7,0.9-1.4,1.1-2.2c0.2-0.8,0.3-1.4,0.3-2c0-0.4-0.1-1-0.2-1.8
		c-0.1-0.7-0.4-1.5-0.9-2.2c-0.4-0.8-1.1-1.4-2-1.9c-0.9-0.5-2.1-0.8-3.6-0.8h-6.2v13.3H515.8z"/>
	<path class="st12" d="M529.6,63.5l19.9-45.9h0.5l19.9,45.9h-10.1l-12.7-32.3l6.3-4.3l-15.2,36.6H529.6z M543.2,47.6h13.3l3.1,7.3
		h-19L543.2,47.6z"/>
	<path class="st12" d="M615.8,65.3l-33.5-30.2l2.6,1.4l0.2,27h-8.8V17.6h0.4l32.8,30.1l-1.9-0.8l-0.2-27.5h8.8v46H615.8z"/>
	<path class="st12" d="M638.9,49.8l-16.3-30.4h10.7l11.4,22.9l-2.6,0.2l11.2-23.1h10.7l-16.6,30.4v13.7h-8.7V49.8z"/>
</g>
</svg>
